<svg id="Capa_1" data-name="Capa 1" xmlns="http://www.w3.org/2000/svg" viewBox="0 0 1080 1080"><defs><style>.cls-1{fill:#0b5077;}.cls-2{fill:#1278cc;}.cls-3{fill:#013140;}.cls-4{fill:#b3cc02;}</style></defs><path class="cls-1" d="M231.89,475.13c-.41,0-.82-.06-1.24-.06H146.6a15.26,15.26,0,0,0-15.26,15.26v84.06c0,.27,0,.54,0,.82l.06-.32A103.77,103.77,0,0,1,231.89,475.13Z"/><path class="cls-2" d="M205.73,547.49q0-6-3.59-8.69a13.3,13.3,0,0,0-16.12,0q-3.6,2.75-3.6,8.69v33.72a8.08,8.08,0,0,1-8.43,8.44h31.74V547.49Z"/><path class="cls-2" d="M174.48,527.89a37.36,37.36,0,0,1,20.09-5.7,49.4,49.4,0,0,1,10.54,1.61,21.92,21.92,0,0,1,8.81,4.59,23.43,23.43,0,0,1,9.92-5A50,50,0,0,1,235,522.19a39.4,39.4,0,0,1,10.91,2v-33.9a15.37,15.37,0,0,0-.56-4.1c-2-.12-4.1-.18-6.18-.18a109.78,109.78,0,0,0-107.75,88.84l0,.74a15.26,15.26,0,0,0,15.21,14h18.71V551Q165.31,533.59,174.48,527.89Z"/><path class="cls-2" d="M242.44,538.8a12.55,12.55,0,0,0-7.94-2.72,13.07,13.07,0,0,0-8.06,2.72q-3.58,2.75-3.59,8.69v42.16h7.8a15.26,15.26,0,0,0,15.26-15.26v-26.9Q245.91,541.54,242.44,538.8Z"/><path class="cls-2" d="M286.05,571H289l6.51,17.92h-3.91l-1.19-3.7h-7l-1.15,3.7h-3.9l5.93-16.72A1.75,1.75,0,0,1,286.05,571Zm.84,3.6-2.5,7.6h5Z"/><path class="cls-2" d="M312.26,586.79a5.82,5.82,0,0,1-2.24,2,8.38,8.38,0,0,1-9.06-2,11.46,11.46,0,0,1-.06-13.69,7.94,7.94,0,0,1,6.2-2.61,9,9,0,0,1,5.52,1.62,6.88,6.88,0,0,1,2.55,4.48h-2.5a1.71,1.71,0,0,1-1.61-1,4,4,0,0,0-1-1.15,4.79,4.79,0,0,0-2.76-.73,4.28,4.28,0,0,0-3.54,1.62,7.37,7.37,0,0,0-1.31,4.58,7.08,7.08,0,0,0,1.36,4.58,4.47,4.47,0,0,0,3.7,1.62,4.28,4.28,0,0,0,2.91-1,4.83,4.83,0,0,0,1.46-2.87h-2.19a1.86,1.86,0,0,1-1.87-1.87v-1.2h7.44v9.74h-1a1.72,1.72,0,0,1-1.82-1.46Z"/><path class="cls-2" d="M318.67,588.93v-16a1.79,1.79,0,0,1,.55-1.33,1.83,1.83,0,0,1,1.33-.55h11.14v3.08h-9.37v3.85h7v1.2a1.84,1.84,0,0,1-1.87,1.87h-5.1v4.58h9.37v3.34Z"/><path class="cls-2" d="M335,588.93v-16a1.79,1.79,0,0,1,.55-1.33,2.05,2.05,0,0,1,1.33-.6h2l7.29,12.34V571h3.65v18H346l-7.34-12.34v12.34Z"/><path class="cls-2" d="M369.15,582.73a6.87,6.87,0,0,1-2.34,4.9,8.75,8.75,0,0,1-5.63,1.71A7.77,7.77,0,0,1,355,586.9c-1.43-1.57-2.14-3.87-2.14-6.93s.73-5.47,2.19-7a8.31,8.31,0,0,1,6.46-2.45,8.19,8.19,0,0,1,5.46,1.72,6.63,6.63,0,0,1,2.19,4.69h-2.24a1.82,1.82,0,0,1-1.77-1.1,5.25,5.25,0,0,0-.88-1.19,5.21,5.21,0,0,0-6.46.78,7.23,7.23,0,0,0-1.25,4.58,7,7,0,0,0,1.25,4.48,4.18,4.18,0,0,0,3.59,1.61,3.85,3.85,0,0,0,4.17-3.33Z"/><path class="cls-2" d="M372.6,588.93v-16a1.82,1.82,0,0,1,.54-1.33,1.84,1.84,0,0,1,1.33-.55h1.82v17.92Z"/><path class="cls-2" d="M386.82,571h2.92l6.51,17.92h-3.91l-1.19-3.7h-7l-1.15,3.7h-3.9l5.93-16.72A1.76,1.76,0,0,1,386.82,571Zm.84,3.6-2.5,7.6h5Z"/><path class="cls-2" d="M416.11,571H419l6.51,17.92h-3.91l-1.2-3.7h-7l-1.14,3.7H408.4l5.94-16.72A1.74,1.74,0,0,1,416.11,571Zm.83,3.6-2.5,7.6h5Z"/><path class="cls-2" d="M429,583.35h3.65a2.84,2.84,0,0,0,1.2,2.19,4.88,4.88,0,0,0,2.86.73,4.35,4.35,0,0,0,2.45-.57A1.91,1.91,0,0,0,440,584q0-1.66-4.68-2.71l-.11-.05-.42-.1a10.71,10.71,0,0,1-3.54-1.2,3.1,3.1,0,0,1-1.45-1.66,5.55,5.55,0,0,1,1.25-6.41,8.1,8.1,0,0,1,5.15-1.41,7.39,7.39,0,0,1,4.9,1.46,5.78,5.78,0,0,1,1.87,4.22h-2.08a1.79,1.79,0,0,1-1.72-1.09,2.63,2.63,0,0,0-.73-.89,4.31,4.31,0,0,0-2.55-.68,3.42,3.42,0,0,0-2.24.58,1.88,1.88,0,0,0-.78,1.61c0,.94,1,1.63,3,2.08a9.33,9.33,0,0,0,1.3.32c.62.21,1.17.37,1.64.49l1.12.29,1.46.62a4.54,4.54,0,0,1,1.61,1.62,5.08,5.08,0,0,1,.57,2.39,5.39,5.39,0,0,1-1.87,4.38,8.49,8.49,0,0,1-5.31,1.45,8,8,0,0,1-5.31-1.51A5.75,5.75,0,0,1,429,583.35Z"/><path class="cls-2" d="M447,588.93v-16a1.88,1.88,0,0,1,1.87-1.88H460v3.08h-9.38v3.85h7v1.2a1.86,1.86,0,0,1-1.87,1.87h-5.11v4.58H460v3.34Z"/><path class="cls-2" d="M463.32,583.35H467a2.84,2.84,0,0,0,1.2,2.19,4.92,4.92,0,0,0,2.87.73,4.31,4.31,0,0,0,2.44-.57,1.89,1.89,0,0,0,.84-1.67c0-1.11-1.57-2-4.69-2.71l-.1-.05-.42-.1a10.71,10.71,0,0,1-3.54-1.2,3.12,3.12,0,0,1-1.46-1.66,5.55,5.55,0,0,1,1.25-6.41,8.14,8.14,0,0,1,5.16-1.41A7.38,7.38,0,0,1,475.4,572a5.74,5.74,0,0,1,1.87,4.22h-2.08a1.79,1.79,0,0,1-1.72-1.09,2.41,2.41,0,0,0-.73-.89,4.26,4.26,0,0,0-2.55-.68,3.44,3.44,0,0,0-2.24.58,1.88,1.88,0,0,0-.78,1.61c0,.94,1,1.63,3,2.08a9.69,9.69,0,0,0,1.3.32c.63.21,1.18.37,1.64.49l1.12.29,1.46.62a4.57,4.57,0,0,1,1.62,1.62,5.08,5.08,0,0,1,.57,2.39,5.42,5.42,0,0,1-1.87,4.38,8.53,8.53,0,0,1-5.32,1.45,8,8,0,0,1-5.31-1.51A5.74,5.74,0,0,1,463.32,583.35Z"/><path class="cls-2" d="M481,580a10,10,0,0,1,2.29-6.92,9.29,9.29,0,0,1,12.81,0,9.91,9.91,0,0,1,2.35,6.92,9.73,9.73,0,0,1-2.35,6.87,9.45,9.45,0,0,1-12.81,0A9.79,9.79,0,0,1,481,580Zm3.7,0a7,7,0,0,0,1.3,4.58,4.47,4.47,0,0,0,3.7,1.62,4.55,4.55,0,0,0,3.69-1.62,7,7,0,0,0,1.36-4.58,7.23,7.23,0,0,0-1.36-4.63,4.55,4.55,0,0,0-3.69-1.62,4.47,4.47,0,0,0-3.7,1.62A7.19,7.19,0,0,0,484.68,580Z"/><path class="cls-2" d="M501.93,588.93v-16a1.82,1.82,0,0,1,.54-1.33,1.84,1.84,0,0,1,1.33-.55h6.82a6.3,6.3,0,0,1,4.32,1.26,4.79,4.79,0,0,1,1.46,3.8,4.85,4.85,0,0,1-.73,2.76,3.56,3.56,0,0,1-2,1.51,2.87,2.87,0,0,1,1.67,1.24,6.27,6.27,0,0,1,.57,2.66l.11,2.14v.67a3.62,3.62,0,0,0,.05.68,1.6,1.6,0,0,0,.62,1.2h-4.06a3,3,0,0,1-.31-1.1,10.36,10.36,0,0,1-.1-1.14l-.06-1.93a4.19,4.19,0,0,0-.62-2.24,2.85,2.85,0,0,0-2-.57h-3.91v7Zm3.69-10.1H510a3.19,3.19,0,0,0,2.08-.58,2.67,2.67,0,0,0,0-3.54,2.58,2.58,0,0,0-1.88-.62h-4.53Z"/><path class="cls-2" d="M527.82,571h2.91l6.51,17.92h-3.9l-1.2-3.7h-7l-1.15,3.7h-3.9l5.94-16.72A1.74,1.74,0,0,1,527.82,571Zm.83,3.6-2.5,7.6h5Z"/><path class="cls-2" d="M553.09,582.52v6.41H549.4v-16a1.82,1.82,0,0,1,.54-1.33,1.84,1.84,0,0,1,1.33-.55h6.09a5.69,5.69,0,0,1,4.27,1.46,5.86,5.86,0,0,1,1.46,4.32,6.13,6.13,0,0,1-1.41,4.27,5.34,5.34,0,0,1-4.06,1.46Zm0-3.23h3.6a2.86,2.86,0,0,0,2.08-.62,2.48,2.48,0,0,0,.68-2,2.86,2.86,0,0,0-.63-1.93,2.9,2.9,0,0,0-1.93-.62h-3.8Z"/><path class="cls-2" d="M566.43,588.93v-16a1.88,1.88,0,0,1,1.88-1.88h6.82a6.33,6.33,0,0,1,4.32,1.26,5.64,5.64,0,0,1,.73,6.56,3.63,3.63,0,0,1-2,1.51,2.87,2.87,0,0,1,1.67,1.24,6.27,6.27,0,0,1,.57,2.66l.11,2.14v.67a3.62,3.62,0,0,0,.05.68,1.6,1.6,0,0,0,.62,1.2h-4.06a3,3,0,0,1-.31-1.1,11.21,11.21,0,0,1-.11-1.14l0-1.93a4.28,4.28,0,0,0-.62-2.24,2.86,2.86,0,0,0-2-.57h-3.91v7Zm3.7-10.1h4.32a3.22,3.22,0,0,0,2.09-.58,2.67,2.67,0,0,0,0-3.54,2.6,2.6,0,0,0-1.88-.62h-4.53Z"/><path class="cls-2" d="M584.3,580a10,10,0,0,1,2.3-6.92,8.43,8.43,0,0,1,6.4-2.56,8.56,8.56,0,0,1,6.41,2.56,10,10,0,0,1,2.34,6.92,9.77,9.77,0,0,1-2.34,6.87,8.47,8.47,0,0,1-6.41,2.5,8.32,8.32,0,0,1-6.4-2.5A9.75,9.75,0,0,1,584.3,580Zm3.7,0a7,7,0,0,0,1.3,4.58,4.47,4.47,0,0,0,3.7,1.62,4.58,4.58,0,0,0,3.7-1.62,7.06,7.06,0,0,0,1.35-4.58,7.29,7.29,0,0,0-1.35-4.63,4.58,4.58,0,0,0-3.7-1.62,4.47,4.47,0,0,0-3.7,1.62A7.25,7.25,0,0,0,588,580Z"/><path class="cls-2" d="M605.25,588.93v-16a1.88,1.88,0,0,1,1.87-1.88h5.16q4.11,0,6.14,2.19t2,6.77a12.23,12.23,0,0,1-.73,4.32,7.28,7.28,0,0,1-2.19,3,7.12,7.12,0,0,1-2.45,1.25,14.25,14.25,0,0,1-3.8.37Zm3.59-3.23h3a4.77,4.77,0,0,0,3.75-1.35c.76-.84,1.15-2.3,1.15-4.38a7.23,7.23,0,0,0-1.1-4.43,3.87,3.87,0,0,0-3.33-1.4h-3.44Z"/><path class="cls-2" d="M627.6,571v11.2a4.93,4.93,0,0,0,.78,3.07,3.38,3.38,0,0,0,2.66.94,3.45,3.45,0,0,0,2.65-.94,4.55,4.55,0,0,0,.83-3.07V571h3.7v11.61a6.52,6.52,0,0,1-1.87,5.06q-1.73,1.71-5.31,1.71t-5.32-1.71a6.52,6.52,0,0,1-1.87-5.06v-9.63a2,2,0,0,1,.55-1.38,1.71,1.71,0,0,1,1.32-.6Z"/><path class="cls-2" d="M657.55,582.73a6.87,6.87,0,0,1-2.34,4.9,8.75,8.75,0,0,1-5.63,1.71,7.77,7.77,0,0,1-6.19-2.44c-1.43-1.57-2.14-3.87-2.14-6.93s.73-5.47,2.19-7a8.31,8.31,0,0,1,6.46-2.45,8.19,8.19,0,0,1,5.46,1.72,6.63,6.63,0,0,1,2.19,4.69h-2.24a1.82,1.82,0,0,1-1.77-1.1,5.25,5.25,0,0,0-.88-1.19,5.21,5.21,0,0,0-6.46.78A7.23,7.23,0,0,0,645,580a7,7,0,0,0,1.25,4.48,4.17,4.17,0,0,0,3.59,1.61,3.85,3.85,0,0,0,4.17-3.33Z"/><path class="cls-2" d="M666.31,588.93V574.19H661v-1.3a1.82,1.82,0,0,1,.54-1.33,1.84,1.84,0,0,1,1.33-.55h12.4v3.18H670v14.74Z"/><path class="cls-2" d="M678.3,580a10,10,0,0,1,2.29-6.92,8.43,8.43,0,0,1,6.4-2.56,8.56,8.56,0,0,1,6.41,2.56,10,10,0,0,1,2.34,6.92,9.77,9.77,0,0,1-2.34,6.87,8.47,8.47,0,0,1-6.41,2.5,8.32,8.32,0,0,1-6.4-2.5A9.75,9.75,0,0,1,678.3,580Zm3.69,0a7,7,0,0,0,1.3,4.58,4.49,4.49,0,0,0,3.7,1.62,4.57,4.57,0,0,0,3.7-1.62A7.06,7.06,0,0,0,692,580a7.29,7.29,0,0,0-1.35-4.63,4.57,4.57,0,0,0-3.7-1.62,4.49,4.49,0,0,0-3.7,1.62A7.25,7.25,0,0,0,682,580Z"/><path class="cls-2" d="M699.24,588.93v-16a1.79,1.79,0,0,1,.55-1.33,1.81,1.81,0,0,1,1.33-.55h6.82a6.33,6.33,0,0,1,4.32,1.26,4.82,4.82,0,0,1,1.46,3.8,4.93,4.93,0,0,1-.73,2.76,3.63,3.63,0,0,1-2,1.51,2.9,2.9,0,0,1,1.67,1.24,6.27,6.27,0,0,1,.57,2.66l.1,2.14v.67a4.72,4.72,0,0,0,0,.68,1.64,1.64,0,0,0,.63,1.2H710a3,3,0,0,1-.32-1.1c-.06-.55-.1-.93-.1-1.14l0-1.93a4.18,4.18,0,0,0-.63-2.24,2.85,2.85,0,0,0-2-.57h-3.9v7Zm3.7-10.1h4.32a3.17,3.17,0,0,0,2.08-.58,2.64,2.64,0,0,0,0-3.54,2.56,2.56,0,0,0-1.87-.62h-4.53Z"/><path class="cls-2" d="M725.13,571h2.92l6.51,17.92h-3.91l-1.2-3.7h-7l-1.15,3.7h-3.91l5.94-16.72A1.74,1.74,0,0,1,725.13,571Zm.83,3.6-2.5,7.6h5Z"/><path class="cls-2" d="M746.71,588.93v-16a1.88,1.88,0,0,1,1.87-1.88h5.16q4.11,0,6.14,2.19t2,6.77a12.23,12.23,0,0,1-.73,4.32,7.28,7.28,0,0,1-2.19,3,7,7,0,0,1-2.45,1.25,14.25,14.25,0,0,1-3.8.37Zm3.59-3.23h3a4.77,4.77,0,0,0,3.75-1.35c.76-.84,1.15-2.3,1.15-4.38a7.23,7.23,0,0,0-1.1-4.43,3.87,3.87,0,0,0-3.33-1.4H750.3Z"/><path class="cls-2" d="M765.31,588.93v-16a1.79,1.79,0,0,1,.55-1.33,1.81,1.81,0,0,1,1.33-.55h11.14v3.08H769v3.85h7v1.2a1.84,1.84,0,0,1-1.87,1.87H769v4.58h9.38v3.34Z"/><path class="cls-2" d="M790.27,583.35h3.65a2.84,2.84,0,0,0,1.2,2.19,4.88,4.88,0,0,0,2.86.73,4.35,4.35,0,0,0,2.45-.57,1.91,1.91,0,0,0,.83-1.67q0-1.66-4.69-2.71l-.1-.05-.42-.1a10.71,10.71,0,0,1-3.54-1.2,3.1,3.1,0,0,1-1.45-1.66,5.5,5.5,0,0,1,1.25-6.41,8.08,8.08,0,0,1,5.15-1.41,7.34,7.34,0,0,1,4.89,1.46,5.75,5.75,0,0,1,1.88,4.22h-2.08a1.78,1.78,0,0,1-1.72-1.09,2.63,2.63,0,0,0-.73-.89,4.31,4.31,0,0,0-2.55-.68,3.42,3.42,0,0,0-2.24.58,1.88,1.88,0,0,0-.78,1.61c0,.94,1,1.63,3,2.08a9.33,9.33,0,0,0,1.3.32c.62.21,1.17.37,1.64.49l1.12.29,1.46.62a4.54,4.54,0,0,1,1.61,1.62,5.08,5.08,0,0,1,.57,2.39,5.39,5.39,0,0,1-1.87,4.38,8.49,8.49,0,0,1-5.31,1.45,8,8,0,0,1-5.31-1.51A5.75,5.75,0,0,1,790.27,583.35Z"/><path class="cls-2" d="M808.25,588.93v-16a1.88,1.88,0,0,1,1.87-1.88h11.15v3.08h-9.38v3.85h7v1.2A1.84,1.84,0,0,1,817,581h-5.11v4.58h9.38v3.34Z"/><path class="cls-2" d="M837.84,586.79a5.75,5.75,0,0,1-2.24,2,7.59,7.59,0,0,1-3,.57,7.68,7.68,0,0,1-6.09-2.55,11.5,11.5,0,0,1-.06-13.69,7.94,7.94,0,0,1,6.2-2.61,9,9,0,0,1,5.52,1.62,6.83,6.83,0,0,1,2.55,4.48h-2.5a1.72,1.72,0,0,1-1.61-1,4,4,0,0,0-1-1.15,4.79,4.79,0,0,0-2.76-.73,4.3,4.3,0,0,0-3.54,1.62,7.37,7.37,0,0,0-1.3,4.58,7.08,7.08,0,0,0,1.35,4.58,4.47,4.47,0,0,0,3.7,1.62,4.28,4.28,0,0,0,2.91-1,4.83,4.83,0,0,0,1.46-2.87h-2.19a1.88,1.88,0,0,1-1.87-1.87v-1.2h7.45v9.74h-1a1.73,1.73,0,0,1-1.83-1.46Z"/><path class="cls-2" d="M848,571v11.2a4.93,4.93,0,0,0,.78,3.07,3.38,3.38,0,0,0,2.66.94,3.45,3.45,0,0,0,2.65-.94,4.54,4.54,0,0,0,.84-3.07V571h3.7v11.61a6.53,6.53,0,0,1-1.88,5.06c-1.14,1.14-2.92,1.71-5.31,1.71s-4.17-.57-5.31-1.71a6.53,6.53,0,0,1-1.88-5.06v-9.63a2,2,0,0,1,.55-1.38,1.73,1.73,0,0,1,1.33-.6Z"/><path class="cls-2" d="M862,588.93v-16a1.82,1.82,0,0,1,.54-1.33,1.84,1.84,0,0,1,1.33-.55h6.82a6.34,6.34,0,0,1,4.33,1.26,4.81,4.81,0,0,1,1.45,3.8,4.93,4.93,0,0,1-.72,2.76,3.63,3.63,0,0,1-2,1.51,2.88,2.88,0,0,1,1.66,1.24,6.12,6.12,0,0,1,.57,2.66l.11,2.14v.67a4.72,4.72,0,0,0,0,.68,1.6,1.6,0,0,0,.63,1.2h-4.07a3.23,3.23,0,0,1-.31-1.1,10.36,10.36,0,0,1-.1-1.14l0-1.93a4.18,4.18,0,0,0-.63-2.24,2.85,2.85,0,0,0-2-.57h-3.91v7Zm3.69-10.1H870a3.19,3.19,0,0,0,2.08-.58,2.64,2.64,0,0,0,0-3.54,2.57,2.57,0,0,0-1.87-.62h-4.54Z"/><path class="cls-2" d="M879.84,580a10,10,0,0,1,2.29-6.92,8.45,8.45,0,0,1,6.41-2.56,8.55,8.55,0,0,1,6.4,2.56,10,10,0,0,1,2.34,6.92,9.77,9.77,0,0,1-2.34,6.87,8.44,8.44,0,0,1-6.4,2.5,8.35,8.35,0,0,1-6.41-2.5A9.75,9.75,0,0,1,879.84,580Zm3.7,0a7,7,0,0,0,1.3,4.58,4.47,4.47,0,0,0,3.7,1.62,4.55,4.55,0,0,0,3.69-1.62,7,7,0,0,0,1.36-4.58,7.23,7.23,0,0,0-1.36-4.63,4.55,4.55,0,0,0-3.69-1.62,4.47,4.47,0,0,0-3.7,1.62A7.19,7.19,0,0,0,883.54,580Z"/><path class="cls-2" d="M900.78,583.35h3.65a2.84,2.84,0,0,0,1.2,2.19,4.86,4.86,0,0,0,2.86.73,4.35,4.35,0,0,0,2.45-.57,1.91,1.91,0,0,0,.83-1.67q0-1.66-4.69-2.71l-.1-.05-.42-.1A10.71,10.71,0,0,1,903,580a3.16,3.16,0,0,1-1.46-1.66,5,5,0,0,1-.52-2.4,4.91,4.91,0,0,1,1.77-4,8.14,8.14,0,0,1,5.16-1.41,7.34,7.34,0,0,1,4.89,1.46,5.78,5.78,0,0,1,1.88,4.22h-2.08a1.78,1.78,0,0,1-1.72-1.09,2.63,2.63,0,0,0-.73-.89,4.31,4.31,0,0,0-2.55-.68,3.42,3.42,0,0,0-2.24.58,1.88,1.88,0,0,0-.78,1.61c0,.94,1,1.63,3,2.08a9.33,9.33,0,0,0,1.3.32c.62.21,1.17.37,1.64.49l1.12.29,1.46.62a4.54,4.54,0,0,1,1.61,1.62,5.08,5.08,0,0,1,.57,2.39,5.39,5.39,0,0,1-1.87,4.38,8.49,8.49,0,0,1-5.31,1.45,8,8,0,0,1-5.31-1.51A5.75,5.75,0,0,1,900.78,583.35Z"/><path class="cls-3" d="M279.27,552.52V487.44a7.36,7.36,0,0,1,2.21-5.39,8.15,8.15,0,0,1,5.39-2.43h14.58l14.37,55.57,14.37-55.57h22.19v72.9H338.43V493.78l-14.79,58.74H308.22l-15-58.74v58.74Z"/><path class="cls-3" d="M361.38,552.52V487.44a7.58,7.58,0,0,1,7.61-7.61h45.22V492.3h-38v15.64h28.31v4.85a7.58,7.58,0,0,1-7.6,7.61H376.18V539h38v13.52Z"/><path class="cls-3" d="M422.16,552.52V487.44a7.58,7.58,0,0,1,7.6-7.61h27.69q11.83,0,17.54,5.07,5.91,5.28,5.91,15.43a19.8,19.8,0,0,1-2.95,11.2,14.38,14.38,0,0,1-8,6.12c3.23,1.14,5.49,2.82,6.76,5.08s2,5.7,2.32,10.77l.43,8.67v2.74a15.76,15.76,0,0,0,.21,2.75q.63,3.81,2.53,4.86H465.69a12.17,12.17,0,0,1-1.27-4.44,45.08,45.08,0,0,1-.42-4.65l-.21-7.81c-.29-4.23-1.13-7.26-2.54-9.09q-2.33-2.32-8.24-2.32H437.16v28.31Zm15-41H454.7q5.7,0,8.45-2.33T465.9,502q0-4.86-2.75-7.19-2.53-2.54-7.6-2.53H437.16Z"/><path class="cls-3" d="M490.54,552.52V487.44a7.58,7.58,0,0,1,7.61-7.61h26.62q11.21,0,17.12,4.65,5.91,5.07,5.92,13.73a17.49,17.49,0,0,1-2.33,9.3,16.21,16.21,0,0,1-6.55,5.71,19,19,0,0,1,8.45,6.55q2.75,4,2.75,10.56,0,10.57-6.76,16.49-7,5.7-19.65,5.7Zm14.37-44.58H522q5.49,0,8-1.91t2.53-5.91q0-4-2.53-5.92-2.12-1.69-8.24-1.69H504.91Zm0,31.48h17.75q5.91,0,9.09-2.32,3-2.11,3-7.19c0-3.38-1-5.84-3-7.4-1.84-1.4-4.94-2.11-9.3-2.11H504.91Z"/><path class="cls-3" d="M558.5,552.52V487.44a7.58,7.58,0,0,1,7.61-7.61h27.68q11.84,0,17.54,5.07,5.91,5.28,5.92,15.43a19.8,19.8,0,0,1-3,11.2,14.38,14.38,0,0,1-8,6.12c3.24,1.14,5.49,2.82,6.76,5.08s2,5.7,2.32,10.77l.43,8.67v2.74a16.79,16.79,0,0,0,.21,2.75c.42,2.54,1.27,4.16,2.53,4.86H602a12.17,12.17,0,0,1-1.27-4.44,45.08,45.08,0,0,1-.42-4.65l-.21-7.81q-.42-6.35-2.54-9.09c-1.55-1.55-4.29-2.32-8.24-2.32H573.5v28.31Zm15-41H591c3.81,0,6.62-.78,8.46-2.33s2.74-3.94,2.74-7.18-.92-5.64-2.74-7.19-4.23-2.53-7.61-2.53H573.5Z"/><path class="cls-3" d="M625.61,516.17q0-17.75,9.3-28.1,9.93-10.35,26-10.35,15.86,0,26,10.35,9.51,10.57,9.51,28.1t-9.51,27.9q-9.74,10.14-26,10.14-16.47,0-26-10.14Q625.61,533.93,625.61,516.17Zm15,0q0,12.27,5.28,18.6,5.28,6.56,15,6.55,9.51,0,15-6.55,5.49-6.76,5.49-18.6t-5.49-18.8q-5.5-6.56-15-6.55-9.72,0-15,6.55T640.62,516.17Z"/><path class="cls-3" d="M705.2,552.52V487.44a7.56,7.56,0,0,1,7.6-7.61h7.4v29.8l28.32-29.8h18.8L738.16,509.2l31.7,43.32H751.69L733.3,526.74q-4.86-6.35-9-5c-2.75.91-4.12,2.64-4.12,5.17v25.57Z"/><path class="cls-3" d="M778.44,529.91h14.79q.84,6.35,4.86,8.88,4.23,3,11.62,3,6.56,0,9.94-2.33a7.7,7.7,0,0,0,3.38-6.76q0-6.76-19-11l-.42-.21L801.9,521q-10.78-2.32-14.37-4.87a12.57,12.57,0,0,1-5.92-6.76,19.83,19.83,0,0,1-2.11-9.72q0-10.35,7.18-16.27,7.19-5.7,20.92-5.7,12.89,0,19.86,5.91,7.18,6.56,7.61,17.12h-8.45a7.19,7.19,0,0,1-7-4.44,10.45,10.45,0,0,0-3-3.59Q812.88,490,806.33,490q-6.33,0-9.08,2.33a7.63,7.63,0,0,0-3.17,6.55q0,5.7,12.25,8.45a37,37,0,0,0,5.29,1.27q3.79,1.26,6.65,2l4.55,1.16,5.91,2.53a18.27,18.27,0,0,1,6.55,6.55,20.65,20.65,0,0,1,2.33,9.73q0,11.4-7.61,17.75-7.61,5.91-21.55,5.91-14.38,0-21.56-6.13Q779.08,542,778.44,529.91Z"/><path class="cls-3" d="M877.25,479.83h11.83l26.42,72.69H899.65l-4.86-15H866.47l-4.65,15H846l24.09-67.83A7.08,7.08,0,0,1,877.25,479.83Zm3.38,14.58-10.14,30.85h20.29Z"/><rect class="cls-4" x="279.27" y="559.58" width="636.23" height="5.51"/></svg>